# xmcd CD database file generated by OrangeCD 5.2
#
# Track frame offsets:
#	150
#	34537
#	60225
#	83420
#	101945
#	136302
#	171862
#	203077
#	240300
#	265350
#
# Disc length: 4231 seconds
#
# Revision: 0
# Processed by: cddbd v1.5.1PL0 Copyright (c) Steve Scherf et al.
# Submitted via: OrangeCD 5.2
#
DISCID=7910850a
DTITLE=Various Artist - Divas Of Dance Vol 5
DYEAR=1998
DGENRE=R&B Female 
TTITLE0=M People - Someday
TTITLE1=Lonnie Gordon - Gotta Catch You
TTITLE2=Brand New Heavies and N'Dea Davenport - Spend Some Time
TTITLE3=Melanie Williams - All Cried Out
TTITLE4=Rozalla - Baby
TTITLE5=Love To Infinity and Louise Bailey - Someday
TTITLE6=Miisa - All Or Nothing
TTITLE7=Joi Cardwell - Love and Devotion
TTITLE8=Cyndi Lauper - That's What I Think
TTITLE9=Shades Of Love and Meli'sa Morgan - Body To Body
EXTD=
EXTT0=
EXTT1=
EXTT2=
EXTT3=
EXTT4=
EXTT5=
EXTT6=
EXTT7=
EXTT8=
EXTT9=
PLAYORDER=
